STARTFONT 2.1
FONT -FontForge-Interval-Normal-R-Normal--18-170-75-75-P-114-ISO10646-1
SIZE 17 75 75
FONTBOUNDINGBOX 23 24 -1 -5
COMMENT "Generated by fontforge, http://fontforge.sourceforge.net"
COMMENT "Copyright (c) 2011 by UnderNoControlTypofoundry (Alex Chavot). All rights reserved."
STARTPROPERTIES 40
FOUNDRY "FontForge"
FAMILY_NAME "Interval"
WEIGHT_NAME "Normal"
SLANT "R"
SETWIDTH_NAME "Normal"
ADD_STYLE_NAME ""
PIXEL_SIZE 18
POINT_SIZE 170
RESOLUTION_X 75
RESOLUTION_Y 75
SPACING "P"
AVERAGE_WIDTH 114
CHARSET_REGISTRY "ISO10646"
CHARSET_ENCODING "1"
FONTNAME_REGISTRY ""
CHARSET_COLLECTIONS "ISO10646-1"
FONT_NAME "Interval-Book"
FACE_NAME "Interval Book"
COPYRIGHT "Copyright (c) 2011 by UnderNoControlTypofoundry (Alex Chavot). All rights reserved."
FONT_VERSION "001.001"
FONT_ASCENT 13
FONT_DESCENT 5
UNDERLINE_POSITION -2
UNDERLINE_THICKNESS 1
X_HEIGHT 9
CAP_HEIGHT 13
RAW_ASCENT 750
RAW_DESCENT 250
NORM_SPACE 11
RELATIVE_WEIGHT 40
RELATIVE_SETWIDTH 50
SUPERSCRIPT_X 0
SUPERSCRIPT_Y 8
SUPERSCRIPT_SIZE 11
SUBSCRIPT_X 0
SUBSCRIPT_Y 2
SUBSCRIPT_SIZE 11
FIGURE_WIDTH 11
AVG_LOWERCASE_WIDTH 110
AVG_UPPERCASE_WIDTH 110
ENDPROPERTIES
CHARS 243
STARTCHAR space
ENCODING 32
SWIDTH 600 0
DWIDTH 11 0
BBX 1 1 0 0
BITMAP
00
ENDCHAR
STARTCHAR exclam
ENCODING 33
SWIDTH 600 0
DWIDTH 11 0
BBX 2 14 4 0
BITMAP
C0
C0
C0
C0
C0
C0
40
40
40
40
00
00
C0
C0
ENDCHAR
STARTCHAR quotedbl
ENCODING 34
SWIDTH 600 0
DWIDTH 11 0
BBX 1 1 0 0
BITMAP
00
ENDCHAR
STARTCHAR numbersign
ENCODING 35
SWIDTH 610 0
DWIDTH 11 0
BBX 11 14 0 0
BITMAP
0C40
08C0
0880
0880
1880
7FE0
1180
1100
3100
FFC0
2300
2200
2200
6200
ENDCHAR
STARTCHAR dollar
ENCODING 36
SWIDTH 600 0
DWIDTH 11 0
BBX 8 15 1 -1
BITMAP
08
3C
62
C1
C0
40
70
1C
03
03
01
C1
43
3E
08
ENDCHAR
STARTCHAR percent
ENCODING 37
SWIDTH 600 0
DWIDTH 11 0
BBX 9 14 1 0
BITMAP
7100
9100
9200
7200
0400
0C00
0800
1800
1000
3000
2700
6480
4480
C700
ENDCHAR
STARTCHAR ampersand
ENCODING 38
SWIDTH 600 0
DWIDTH 11 0
BBX 9 14 1 0
BITMAP
3C00
4600
C300
8000
8000
C000
7780
6300
C300
8300
8300
8300
C700
3D00
ENDCHAR
STARTCHAR quotesingle
ENCODING 39
SWIDTH 600 0
DWIDTH 11 0
BBX 3 5 4 10
BITMAP
60
60
20
40
C0
ENDCHAR
STARTCHAR parenleft
ENCODING 40
SWIDTH 600 0
DWIDTH 11 0
BBX 3 16 5 -2
BITMAP
60
40
C0
C0
80
80
80
80
80
80
80
80
C0
C0
40
60
ENDCHAR
STARTCHAR parenright
ENCODING 41
SWIDTH 600 0
DWIDTH 11 0
BBX 3 16 3 -2
BITMAP
80
40
40
60
60
20
20
20
20
20
20
60
60
40
40
80
ENDCHAR
STARTCHAR asterisk
ENCODING 42
SWIDTH 600 0
DWIDTH 11 0
BBX 6 6 2 8
BITMAP
10
20
EC
30
68
48
ENDCHAR
STARTCHAR plus
ENCODING 43
SWIDTH 600 0
DWIDTH 11 0
BBX 8 8 1 2
BITMAP
08
08
08
08
FF
08
08
08
ENDCHAR
STARTCHAR comma
ENCODING 44
SWIDTH 600 0
DWIDTH 11 0
BBX 2 5 4 -3
BITMAP
C0
C0
40
40
80
ENDCHAR
STARTCHAR hyphen
ENCODING 45
SWIDTH 600 0
DWIDTH 11 0
BBX 5 1 3 4
BITMAP
F8
ENDCHAR
STARTCHAR period
ENCODING 46
SWIDTH 600 0
DWIDTH 11 0
BBX 2 2 4 0
BITMAP
C0
C0
ENDCHAR
STARTCHAR slash
ENCODING 47
SWIDTH 600 0
DWIDTH 11 0
BBX 7 15 2 -1
BITMAP
06
04
04
08
08
18
10
10
30
20
20
60
40
40
C0
ENDCHAR
STARTCHAR zero
ENCODING 48
SWIDTH 600 0
DWIDTH 11 0
BBX 9 14 1 0
BITMAP
3C00
6200
4700
4500
C500
CD80
C980
C980
D980
D100
7100
6300
6200
3C00
ENDCHAR
STARTCHAR one
ENCODING 49
SWIDTH 600 0
DWIDTH 11 0
BBX 8 14 1 0
BITMAP
18
38
78
08
08
08
08
08
08
08
08
08
08
FF
ENDCHAR
STARTCHAR two
ENCODING 50
SWIDTH 600 0
DWIDTH 11 0
BBX 8 14 1 0
BITMAP
3C
66
C3
01
01
03
06
0C
18
30
60
40
C0
FF
ENDCHAR
STARTCHAR three
ENCODING 51
SWIDTH 600 0
DWIDTH 11 0
BBX 8 14 1 0
BITMAP
3C
63
43
01
01
03
1E
06
03
01
01
C1
63
3C
ENDCHAR
STARTCHAR four
ENCODING 52
SWIDTH 600 0
DWIDTH 11 0
BBX 9 14 1 0
BITMAP
0600
0E00
1E00
1600
2600
6600
4600
8600
FF80
0600
0600
0600
0600
0600
ENDCHAR
STARTCHAR five
ENCODING 53
SWIDTH 600 0
DWIDTH 11 0
BBX 7 14 2 0
BITMAP
FE
80
80
80
80
BC
C6
02
02
02
02
82
C4
78
ENDCHAR
STARTCHAR six
ENCODING 54
SWIDTH 600 0
DWIDTH 11 0
BBX 8 14 1 0
BITMAP
1E
23
60
40
40
C0
DE
E3
C1
C1
41
41
63
3E
ENDCHAR
STARTCHAR seven
ENCODING 55
SWIDTH 600 0
DWIDTH 11 0
BBX 8 14 1 0
BITMAP
FF
03
02
02
06
04
0C
08
08
18
10
30
30
20
ENDCHAR
STARTCHAR eight
ENCODING 56
SWIDTH 600 0
DWIDTH 11 0
BBX 7 14 2 0
BITMAP
3C
C6
C6
82
C6
44
7C
C6
82
82
82
82
C6
7C
ENDCHAR
STARTCHAR nine
ENCODING 57
SWIDTH 600 0
DWIDTH 11 0
BBX 8 14 1 0
BITMAP
3C
66
43
C1
C1
43
63
3D
01
01
01
03
66
3C
ENDCHAR
STARTCHAR colon
ENCODING 58
SWIDTH 600 0
DWIDTH 11 0
BBX 2 10 4 0
BITMAP
C0
C0
00
00
00
00
00
00
C0
C0
ENDCHAR
STARTCHAR semicolon
ENCODING 59
SWIDTH 600 0
DWIDTH 11 0
BBX 2 13 4 -3
BITMAP
C0
C0
00
00
00
00
00
C0
C0
C0
40
40
80
ENDCHAR
STARTCHAR less
ENCODING 60
SWIDTH 600 0
DWIDTH 11 0
BBX 5 8 3 2
BITMAP
18
30
60
C0
C0
60
30
18
ENDCHAR
STARTCHAR equal
ENCODING 61
SWIDTH 600 0
DWIDTH 11 0
BBX 8 4 1 4
BITMAP
FF
00
00
FF
ENDCHAR
STARTCHAR greater
ENCODING 62
SWIDTH 600 0
DWIDTH 11 0
BBX 5 8 3 2
BITMAP
C0
60
30
18
18
30
60
C0
ENDCHAR
STARTCHAR question
ENCODING 63
SWIDTH 600 0
DWIDTH 11 0
BBX 8 14 1 0
BITMAP
3C
66
C3
03
03
06
0C
18
10
10
00
00
18
18
ENDCHAR
STARTCHAR at
ENCODING 64
SWIDTH 600 0
DWIDTH 11 0
BBX 12 12 -1 0
BITMAP
0F80
18E0
2020
6730
4890
D890
D890
D890
D890
4890
49D0
6760
ENDCHAR
STARTCHAR A
ENCODING 65
SWIDTH 600 0
DWIDTH 11 0
BBX 8 14 2 0
BITMAP
18
18
38
38
2C
2C
24
64
44
46
7E
C2
C2
83
ENDCHAR
STARTCHAR B
ENCODING 66
SWIDTH 600 0
DWIDTH 11 0
BBX 8 14 1 0
BITMAP
FE
C3
C3
C3
C3
C2
FC
C3
C1
C1
C1
C1
C3
FE
ENDCHAR
STARTCHAR C
ENCODING 67
SWIDTH 600 0
DWIDTH 11 0
BBX 7 14 2 0
BITMAP
3C
46
C2
80
80
80
80
80
80
80
80
C2
46
3C
ENDCHAR
STARTCHAR D
ENCODING 68
SWIDTH 600 0
DWIDTH 11 0
BBX 8 14 2 0
BITMAP
F8
84
82
82
83
83
83
83
83
83
82
82
84
F8
ENDCHAR
STARTCHAR E
ENCODING 69
SWIDTH 600 0
DWIDTH 11 0
BBX 7 14 2 0
BITMAP
FE
80
80
80
80
80
FC
80
80
80
80
80
80
FE
ENDCHAR
STARTCHAR F
ENCODING 70
SWIDTH 600 0
DWIDTH 11 0
BBX 7 14 2 0
BITMAP
FE
80
80
80
80
80
FC
80
80
80
80
80
80
80
ENDCHAR
STARTCHAR G
ENCODING 71
SWIDTH 600 0
DWIDTH 11 0
BBX 8 14 1 0
BITMAP
3E
63
41
40
C0
C0
C0
C7
C1
C1
41
41
63
3D
ENDCHAR
STARTCHAR H
ENCODING 72
SWIDTH 600 0
DWIDTH 11 0
BBX 8 14 1 0
BITMAP
C1
C1
C1
C1
C1
C1
C1
FF
C1
C1
C1
C1
C1
C1
ENDCHAR
STARTCHAR I
ENCODING 73
SWIDTH 600 0
DWIDTH 11 0
BBX 7 14 2 0
BITMAP
FE
10
10
10
10
10
10
10
10
10
10
10
10
FE
ENDCHAR
STARTCHAR J
ENCODING 74
SWIDTH 600 0
DWIDTH 11 0
BBX 6 14 2 0
BITMAP
04
04
04
04
04
04
04
04
04
04
84
84
CC
78
ENDCHAR
STARTCHAR K
ENCODING 75
SWIDTH 600 0
DWIDTH 11 0
BBX 7 14 2 0
BITMAP
86
8C
88
98
90
B0
E0
A0
B0
90
88
8C
84
86
ENDCHAR
STARTCHAR L
ENCODING 76
SWIDTH 600 0
DWIDTH 11 0
BBX 7 14 2 0
BITMAP
80
80
80
80
80
80
80
80
80
80
80
80
80
FE
ENDCHAR
STARTCHAR M
ENCODING 77
SWIDTH 600 0
DWIDTH 11 0
BBX 9 14 1 0
BITMAP
C180
C180
E380
E380
E780
F580
DD80
DD80
C980
C180
C180
C180
C180
C180
ENDCHAR
STARTCHAR N
ENCODING 78
SWIDTH 600 0
DWIDTH 11 0
BBX 7 14 2 0
BITMAP
82
C2
C2
E2
A2
A2
B2
92
9A
8A
8E
86
86
82
ENDCHAR
STARTCHAR O
ENCODING 79
SWIDTH 600 0
DWIDTH 11 0
BBX 9 14 1 0
BITMAP
3C00
6200
4300
4100
C100
C180
C180
C180
C180
C100
4100
4300
6200
3C00
ENDCHAR
STARTCHAR P
ENCODING 80
SWIDTH 600 0
DWIDTH 11 0
BBX 8 14 2 0
BITMAP
FC
86
82
83
83
82
86
FC
80
80
80
80
80
80
ENDCHAR
STARTCHAR Q
ENCODING 81
SWIDTH 600 0
DWIDTH 11 0
BBX 8 15 1 -1
BITMAP
3C
62
43
C1
C1
C1
C1
C1
C1
C1
CD
47
66
3F
01
ENDCHAR
STARTCHAR R
ENCODING 82
SWIDTH 600 0
DWIDTH 11 0
BBX 8 14 2 0
BITMAP
FC
86
82
83
83
82
86
FC
88
8C
84
84
86
82
ENDCHAR
STARTCHAR S
ENCODING 83
SWIDTH 600 0
DWIDTH 11 0
BBX 8 14 2 0
BITMAP
3C
C6
C2
80
C0
E0
38
0E
02
03
03
83
C6
7C
ENDCHAR
STARTCHAR T
ENCODING 84
SWIDTH 600 0
DWIDTH 11 0
BBX 9 14 1 0
BITMAP
FF80
0800
0800
0800
0800
0800
0800
0800
0800
0800
0800
0800
0800
0800
ENDCHAR
STARTCHAR U
ENCODING 85
SWIDTH 600 0
DWIDTH 11 0
BBX 7 14 2 0
BITMAP
82
82
82
82
82
82
82
82
82
82
82
82
C6
78
ENDCHAR
STARTCHAR V
ENCODING 86
SWIDTH 600 0
DWIDTH 11 0
BBX 9 14 1 0
BITMAP
C180
C100
4100
4300
6200
2200
2200
2600
3400
1400
1C00
1C00
0800
0800
ENDCHAR
STARTCHAR W
ENCODING 87
SWIDTH 600 0
DWIDTH 11 0
BBX 10 14 0 0
BITMAP
C440
4C40
4C40
4EC0
6EC0
6A80
2A80
2A80
3A80
3B80
3380
3300
1100
1100
ENDCHAR
STARTCHAR X
ENCODING 88
SWIDTH 600 0
DWIDTH 11 0
BBX 7 14 2 0
BITMAP
82
C6
44
4C
68
38
30
30
38
68
4C
44
C6
82
ENDCHAR
STARTCHAR Y
ENCODING 89
SWIDTH 600 0
DWIDTH 11 0
BBX 7 14 2 0
BITMAP
86
C4
44
4C
28
28
30
10
10
10
10
10
10
10
ENDCHAR
STARTCHAR Z
ENCODING 90
SWIDTH 600 0
DWIDTH 11 0
BBX 8 14 1 0
BITMAP
7F
01
02
06
04
0C
08
18
10
30
20
60
40
FF
ENDCHAR
STARTCHAR bracketleft
ENCODING 91
SWIDTH 600 0
DWIDTH 11 0
BBX 4 17 4 -3
BITMAP
F0
80
80
80
80
80
80
80
80
80
80
80
80
80
80
80
F0
ENDCHAR
STARTCHAR backslash
ENCODING 92
SWIDTH 600 0
DWIDTH 11 0
BBX 7 15 2 -1
BITMAP
C0
40
40
60
20
20
30
10
10
18
08
08
0C
04
06
ENDCHAR
STARTCHAR bracketright
ENCODING 93
SWIDTH 600 0
DWIDTH 11 0
BBX 5 17 2 -3
BITMAP
F8
08
08
08
08
08
08
08
08
08
08
08
08
08
08
08
F8
ENDCHAR
STARTCHAR underscore
ENCODING 95
SWIDTH 600 0
DWIDTH 11 0
BBX 11 1 0 -2
BITMAP
FFE0
ENDCHAR
STARTCHAR grave
ENCODING 96
SWIDTH 600 0
DWIDTH 11 0
BBX 3 3 4 11
BITMAP
80
C0
60
ENDCHAR
STARTCHAR a
ENCODING 97
SWIDTH 600 0
DWIDTH 11 0
BBX 7 10 2 0
BITMAP
7C
C4
86
02
1E
F2
82
82
86
7A
ENDCHAR
STARTCHAR b
ENCODING 98
SWIDTH 600 0
DWIDTH 11 0
BBX 7 14 2 0
BITMAP
80
80
80
80
B8
C4
82
82
82
82
82
82
C4
B8
ENDCHAR
STARTCHAR c
ENCODING 99
SWIDTH 600 0
DWIDTH 11 0
BBX 7 10 2 0
BITMAP
3C
66
C2
80
80
80
80
C2
66
3C
ENDCHAR
STARTCHAR d
ENCODING 100
SWIDTH 600 0
DWIDTH 11 0
BBX 8 14 1 0
BITMAP
01
01
01
01
3D
63
41
41
C1
C1
41
41
63
3D
ENDCHAR
STARTCHAR e
ENCODING 101
SWIDTH 600 0
DWIDTH 11 0
BBX 7 10 2 0
BITMAP
3C
46
82
82
FE
80
80
C2
46
3C
ENDCHAR
STARTCHAR f
ENCODING 102
SWIDTH 600 0
DWIDTH 11 0
BBX 8 15 1 0
BITMAP
0F
18
10
10
10
FE
10
10
10
10
10
10
10
10
10
ENDCHAR
STARTCHAR g
ENCODING 103
SWIDTH 600 0
DWIDTH 11 0
BBX 8 15 1 -5
BITMAP
3D
63
41
41
C1
C1
41
41
63
3D
01
01
43
3E
1C
ENDCHAR
STARTCHAR h
ENCODING 104
SWIDTH 600 0
DWIDTH 11 0
BBX 7 14 2 0
BITMAP
80
80
80
80
BC
C6
82
82
82
82
82
82
82
82
ENDCHAR
STARTCHAR i
ENCODING 105
SWIDTH 600 0
DWIDTH 11 0
BBX 7 15 2 0
BITMAP
30
30
00
00
00
70
10
10
10
10
10
10
10
10
FE
ENDCHAR
STARTCHAR j
ENCODING 106
SWIDTH 600 0
DWIDTH 11 0
BBX 5 18 2 -3
BITMAP
18
18
00
00
00
38
08
08
08
08
08
08
08
08
08
08
08
F0
ENDCHAR
STARTCHAR k
ENCODING 107
SWIDTH 600 0
DWIDTH 11 0
BBX 7 14 2 0
BITMAP
80
80
80
80
86
8C
98
B0
F0
D0
98
8C
84
86
ENDCHAR
STARTCHAR l
ENCODING 108
SWIDTH 600 0
DWIDTH 11 0
BBX 7 14 2 0
BITMAP
70
10
10
10
10
10
10
10
10
10
10
10
10
FE
ENDCHAR
STARTCHAR m
ENCODING 109
SWIDTH 600 0
DWIDTH 11 0
BBX 10 10 0 0
BITMAP
BBC0
CE40
8440
8440
8440
8440
8440
8440
8440
8440
ENDCHAR
STARTCHAR n
ENCODING 110
SWIDTH 600 0
DWIDTH 11 0
BBX 7 10 2 0
BITMAP
BC
C6
82
82
82
82
82
82
82
82
ENDCHAR
STARTCHAR o
ENCODING 111
SWIDTH 600 0
DWIDTH 11 0
BBX 8 10 1 0
BITMAP
3C
62
41
41
C1
C1
41
41
62
3C
ENDCHAR
STARTCHAR p
ENCODING 112
SWIDTH 600 0
DWIDTH 11 0
BBX 7 15 2 -5
BITMAP
B8
C4
82
82
82
82
82
82
C4
B8
80
80
80
80
80
ENDCHAR
STARTCHAR q
ENCODING 113
SWIDTH 600 0
DWIDTH 11 0
BBX 8 15 1 -5
BITMAP
3D
63
41
41
C1
C1
41
41
63
3D
01
01
01
01
01
ENDCHAR
STARTCHAR r
ENCODING 114
SWIDTH 600 0
DWIDTH 11 0
BBX 9 10 1 0
BITMAP
2700
1980
1180
1000
1000
1000
1000
1000
1000
FE00
ENDCHAR
STARTCHAR s
ENCODING 115
SWIDTH 600 0
DWIDTH 11 0
BBX 7 10 2 0
BITMAP
78
CC
84
C0
70
1C
06
86
C4
78
ENDCHAR
STARTCHAR t
ENCODING 116
SWIDTH 600 0
DWIDTH 11 0
BBX 7 13 2 0
BITMAP
20
20
20
FC
20
20
20
20
20
20
20
30
1E
ENDCHAR
STARTCHAR u
ENCODING 117
SWIDTH 600 0
DWIDTH 11 0
BBX 7 10 2 0
BITMAP
82
82
82
82
82
82
82
82
C6
7A
ENDCHAR
STARTCHAR v
ENCODING 118
SWIDTH 600 0
DWIDTH 11 0
BBX 7 10 2 0
BITMAP
82
82
C6
44
44
6C
28
28
38
10
ENDCHAR
STARTCHAR w
ENCODING 119
SWIDTH 600 0
DWIDTH 11 0
BBX 9 10 1 0
BITMAP
9880
9C80
9C80
9580
D500
5500
7500
6700
6700
6200
ENDCHAR
STARTCHAR x
ENCODING 120
SWIDTH 600 0
DWIDTH 11 0
BBX 7 10 2 0
BITMAP
86
C4
6C
28
38
38
68
4C
C6
82
ENDCHAR
STARTCHAR y
ENCODING 121
SWIDTH 600 0
DWIDTH 11 0
BBX 9 13 1 -3
BITMAP
C180
4100
4100
6300
2200
2200
3600
1400
1400
1800
0800
1800
7000
ENDCHAR
STARTCHAR z
ENCODING 122
SWIDTH 600 0
DWIDTH 11 0
BBX 7 10 2 0
BITMAP
FE
04
0C
18
10
30
60
40
C0
FE
ENDCHAR
STARTCHAR braceleft
ENCODING 123
SWIDTH 600 0
DWIDTH 11 0
BBX 4 15 4 -1
BITMAP
30
60
40
40
40
40
40
C0
40
40
40
40
40
60
30
ENDCHAR
STARTCHAR bar
ENCODING 124
SWIDTH 600 0
DWIDTH 11 0
BBX 1 17 5 -2
BITMAP
80
80
80
80
80
80
80
80
80
80
80
80
80
80
80
80
80
ENDCHAR
STARTCHAR braceright
ENCODING 125
SWIDTH 600 0
DWIDTH 11 0
BBX 4 15 3 -1
BITMAP
C0
40
60
20
20
20
20
30
20
20
20
20
60
40
C0
ENDCHAR
STARTCHAR asciitilde
ENCODING 126
SWIDTH 600 0
DWIDTH 11 0
BBX 9 3 1 4
BITMAP
7880
9D80
8700
ENDCHAR
STARTCHAR exclamdown
ENCODING 161
SWIDTH 600 0
DWIDTH 11 0
BBX 2 14 4 0
BITMAP
C0
C0
00
00
40
40
40
40
C0
C0
C0
C0
C0
C0
ENDCHAR
STARTCHAR cent
ENCODING 162
SWIDTH 600 0
DWIDTH 11 0
BBX 7 11 2 -1
BITMAP
10
7C
D6
90
90
90
90
90
D6
7C
10
ENDCHAR
STARTCHAR sterling
ENCODING 163
SWIDTH 600 0
DWIDTH 11 0
BBX 9 12 1 0
BITMAP
0F00
1180
1000
1000
1000
FE00
1000
1000
1000
1000
7080
9F00
ENDCHAR
STARTCHAR currency
ENCODING 164
SWIDTH 600 0
DWIDTH 11 0
BBX 9 10 1 0
BITMAP
8000
DD00
6200
4300
4100
4100
4300
6300
FD80
8100
ENDCHAR
STARTCHAR yen
ENCODING 165
SWIDTH 600 0
DWIDTH 11 0
BBX 8 14 1 0
BITMAP
41
62
22
26
14
14
FF
08
08
FF
08
08
08
08
ENDCHAR
STARTCHAR brokenbar
ENCODING 166
SWIDTH 600 0
DWIDTH 11 0
BBX 1 17 5 -2
BITMAP
80
80
80
80
80
80
80
80
00
80
80
80
80
80
80
80
80
ENDCHAR
STARTCHAR section
ENCODING 167
SWIDTH 600 0
DWIDTH 11 0
BBX 7 15 2 0
BITMAP
78
C4
80
C0
60
7C
C4
C6
C4
78
1C
06
06
C4
78
ENDCHAR
STARTCHAR dieresis
ENCODING 168
SWIDTH 600 0
DWIDTH 11 0
BBX 7 2 2 12
BITMAP
C4
CE
ENDCHAR
STARTCHAR copyright
ENCODING 169
SWIDTH 600 0
DWIDTH 11 0
BBX 11 11 0 3
BITMAP
1E00
3180
4EC0
5140
B040
A020
B040
5140
4EC0
2180
1E00
ENDCHAR
STARTCHAR guillemotleft
ENCODING 171
SWIDTH 600 0
DWIDTH 11 0
BBX 7 8 2 2
BITMAP
62
46
CC
88
88
CC
46
62
ENDCHAR
STARTCHAR logicalnot
ENCODING 172
SWIDTH 600 0
DWIDTH 11 0
BBX 9 3 1 3
BITMAP
FF80
0080
0080
ENDCHAR
STARTCHAR registered
ENCODING 174
SWIDTH 600 0
DWIDTH 11 0
BBX 11 11 0 3
BITMAP
1E00
2180
4E40
4940
8940
8E20
8C40
4C40
4AC0
2180
1F00
ENDCHAR
STARTCHAR macron
ENCODING 175
SWIDTH 833 0
DWIDTH 15 0
BBX 1 1 0 0
BITMAP
00
ENDCHAR
STARTCHAR degree
ENCODING 176
SWIDTH 600 0
DWIDTH 11 0
BBX 5 5 2 9
BITMAP
70
C8
88
C8
70
ENDCHAR
STARTCHAR plusminus
ENCODING 177
SWIDTH 600 0
DWIDTH 11 0
BBX 8 11 1 2
BITMAP
08
08
08
FF
08
08
08
08
00
00
FF
ENDCHAR
STARTCHAR twosuperior
ENCODING 178
SWIDTH 600 0
DWIDTH 11 0
BBX 3 6 3 9
BITMAP
60
A0
20
40
80
E0
ENDCHAR
STARTCHAR threesuperior
ENCODING 179
SWIDTH 600 0
DWIDTH 11 0
BBX 3 6 3 8
BITMAP
E0
20
60
20
A0
C0
ENDCHAR
STARTCHAR acute
ENCODING 180
SWIDTH 600 0
DWIDTH 11 0
BBX 3 3 4 11
BITMAP
60
40
80
ENDCHAR
STARTCHAR mu
ENCODING 181
SWIDTH 600 0
DWIDTH 11 0
BBX 7 14 2 -4
BITMAP
82
82
82
82
82
82
82
82
C6
FA
80
80
80
80
ENDCHAR
STARTCHAR paragraph
ENCODING 182
SWIDTH 600 0
DWIDTH 11 0
BBX 9 14 1 0
BITMAP
3F80
7900
F900
F900
F900
F900
7900
3F00
0900
0900
0900
0900
0900
0900
ENDCHAR
STARTCHAR periodcentered
ENCODING 183
SWIDTH 600 0
DWIDTH 11 0
BBX 1 1 0 0
BITMAP
00
ENDCHAR
STARTCHAR cedilla
ENCODING 184
SWIDTH 600 0
DWIDTH 11 0
BBX 3 4 4 -4
BITMAP
80
60
20
E0
ENDCHAR
STARTCHAR onesuperior
ENCODING 185
SWIDTH 600 0
DWIDTH 11 0
BBX 4 5 3 9
BITMAP
40
C0
40
40
F0
ENDCHAR
STARTCHAR ordmasculine
ENCODING 186
SWIDTH 600 0
DWIDTH 11 0
BBX 1 1 0 0
BITMAP
00
ENDCHAR
STARTCHAR guillemotright
ENCODING 187
SWIDTH 600 0
DWIDTH 11 0
BBX 7 8 2 2
BITMAP
88
CC
46
62
62
46
CC
88
ENDCHAR
STARTCHAR onequarter
ENCODING 188
SWIDTH 600 0
DWIDTH 11 0
BBX 11 16 0 -1
BITMAP
0180
6100
E100
2300
2200
2200
2600
F400
0480
0C80
0980
0A80
1BE0
1080
1080
3000
ENDCHAR
STARTCHAR onehalf
ENCODING 189
SWIDTH 600 0
DWIDTH 11 0
BBX 11 16 0 -1
BITMAP
0180
6100
E100
2300
2200
2200
2600
F400
0400
0DC0
0920
0840
1880
1100
11C0
3000
ENDCHAR
STARTCHAR threequarters
ENCODING 190
SWIDTH 600 0
DWIDTH 11 0
BBX 10 16 1 -1
BITMAP
0300
E200
1200
3600
6400
1400
1C00
E800
0900
1900
1300
1500
37C0
2100
2100
6000
ENDCHAR
STARTCHAR questiondown
ENCODING 191
SWIDTH 600 0
DWIDTH 11 0
BBX 7 14 2 -5
BITMAP
18
18
00
00
18
18
10
20
40
C0
C0
C2
FE
3C
ENDCHAR
STARTCHAR Agrave
ENCODING 192
SWIDTH 600 0
DWIDTH 11 0
BBX 8 18 2 0
BITMAP
30
18
08
00
18
18
38
38
2C
2C
24
64
44
46
7E
C2
C2
83
ENDCHAR
STARTCHAR Aacute
ENCODING 193
SWIDTH 600 0
DWIDTH 11 0
BBX 8 17 2 0
BITMAP
18
10
20
00
18
18
38
38
2C
2C
64
64
46
7E
C2
C2
83
ENDCHAR
STARTCHAR Acircumflex
ENCODING 194
SWIDTH 600 0
DWIDTH 11 0
BBX 8 18 2 0
BITMAP
18
2C
44
00
18
18
38
38
2C
2C
24
64
44
46
7E
C2
C2
83
ENDCHAR
STARTCHAR Atilde
ENCODING 195
SWIDTH 600 0
DWIDTH 11 0
BBX 8 18 2 0
BITMAP
30
4C
00
00
18
18
38
38
2C
2C
24
64
44
46
7E
C2
C2
83
ENDCHAR
STARTCHAR Adieresis
ENCODING 196
SWIDTH 600 0
DWIDTH 11 0
BBX 8 18 2 0
BITMAP
66
66
00
00
18
18
38
38
2C
2C
24
64
44
46
7E
C2
C2
83
ENDCHAR
STARTCHAR Aring
ENCODING 197
SWIDTH 600 0
DWIDTH 11 0
BBX 8 19 2 0
BITMAP
38
24
24
18
00
18
18
38
38
2C
2C
24
64
44
46
7E
C2
82
83
ENDCHAR
STARTCHAR AE
ENCODING 198
SWIDTH 600 0
DWIDTH 11 0
BBX 11 14 0 0
BITMAP
0FE0
0E00
1E00
1600
1600
3600
2780
2600
6600
4600
7E00
C600
8600
87E0
ENDCHAR
STARTCHAR Ccedilla
ENCODING 199
SWIDTH 600 0
DWIDTH 11 0
BBX 8 18 1 -4
BITMAP
1E
23
61
40
40
C0
C0
C0
C0
40
40
41
23
1E
08
0C
02
1C
ENDCHAR
STARTCHAR Egrave
ENCODING 200
SWIDTH 600 0
DWIDTH 11 0
BBX 7 18 2 0
BITMAP
20
10
18
00
FE
80
80
80
80
80
FC
80
80
80
80
80
80
FE
ENDCHAR
STARTCHAR Eacute
ENCODING 201
SWIDTH 600 0
DWIDTH 11 0
BBX 7 18 2 0
BITMAP
18
10
20
00
FE
80
80
80
80
80
FC
80
80
80
80
80
80
FE
ENDCHAR
STARTCHAR Ecircumflex
ENCODING 202
SWIDTH 600 0
DWIDTH 11 0
BBX 7 18 2 0
BITMAP
38
28
44
00
FE
80
80
80
80
80
FC
80
80
80
80
80
80
FE
ENDCHAR
STARTCHAR Edieresis
ENCODING 203
SWIDTH 600 0
DWIDTH 11 0
BBX 7 18 2 0
BITMAP
CE
C4
00
00
FE
80
80
80
80
80
FC
80
80
80
80
80
80
FE
ENDCHAR
STARTCHAR Igrave
ENCODING 204
SWIDTH 600 0
DWIDTH 11 0
BBX 7 18 2 0
BITMAP
20
10
08
00
FE
10
10
10
10
10
10
10
10
10
10
10
10
FE
ENDCHAR
STARTCHAR Iacute
ENCODING 205
SWIDTH 600 0
DWIDTH 11 0
BBX 7 18 2 0
BITMAP
18
10
20
00
FE
10
10
10
10
10
10
10
10
10
10
10
10
FE
ENDCHAR
STARTCHAR Icircumflex
ENCODING 206
SWIDTH 600 0
DWIDTH 11 0
BBX 7 18 2 0
BITMAP
38
68
44
00
FE
10
10
10
10
10
10
10
10
10
10
10
10
FE
ENDCHAR
STARTCHAR Idieresis
ENCODING 207
SWIDTH 600 0
DWIDTH 11 0
BBX 7 18 2 0
BITMAP
CE
C4
00
00
FE
10
10
10
10
10
10
10
10
10
10
10
10
FE
ENDCHAR
STARTCHAR Eth
ENCODING 208
SWIDTH 600 0
DWIDTH 11 0
BBX 10 14 0 0
BITMAP
3E00
2100
2080
2080
20C0
20C0
FCC0
20C0
20C0
20C0
2080
2080
2100
3E00
ENDCHAR
STARTCHAR Ntilde
ENCODING 209
SWIDTH 600 0
DWIDTH 11 0
BBX 7 18 2 0
BITMAP
60
1C
00
00
82
C2
C2
E2
A2
A2
B2
92
9A
8A
8E
86
86
82
ENDCHAR
STARTCHAR Ograve
ENCODING 210
SWIDTH 600 0
DWIDTH 11 0
BBX 9 18 1 0
BITMAP
1000
1800
0C00
0000
3C00
6200
4300
4100
C100
C180
C180
C180
C180
C100
4100
4300
6200
3C00
ENDCHAR
STARTCHAR Oacute
ENCODING 211
SWIDTH 600 0
DWIDTH 11 0
BBX 9 18 1 0
BITMAP
0C00
0800
1000
0000
3C00
6200
4300
4100
C100
C180
C180
C180
C180
C100
4100
4300
6200
3C00
ENDCHAR
STARTCHAR Ocircumflex
ENCODING 212
SWIDTH 600 0
DWIDTH 11 0
BBX 9 18 1 0
BITMAP
1C00
1400
2200
0000
3C00
6200
4300
4100
C100
C180
C180
C180
C180
C100
4100
4300
6200
3C00
ENDCHAR
STARTCHAR Otilde
ENCODING 213
SWIDTH 600 0
DWIDTH 11 0
BBX 9 17 1 0
BITMAP
3E00
0400
0000
3C00
6200
4300
4100
C100
C180
C180
C180
C180
C100
4100
4300
6200
3C00
ENDCHAR
STARTCHAR Odieresis
ENCODING 214
SWIDTH 600 0
DWIDTH 11 0
BBX 9 18 1 0
BITMAP
6200
6700
0000
0000
3C00
6200
4300
4100
C100
C180
C180
C180
C180
C100
4100
4300
6200
3C00
ENDCHAR
STARTCHAR multiply
ENCODING 215
SWIDTH 600 0
DWIDTH 11 0
BBX 5 7 3 2
BITMAP
08
98
70
20
70
98
08
ENDCHAR
STARTCHAR Oslash
ENCODING 216
SWIDTH 600 0
DWIDTH 11 0
BBX 9 14 1 0
BITMAP
3E00
6200
4700
4500
C500
CD80
C980
C980
D180
D100
5100
6300
6200
7C00
ENDCHAR
STARTCHAR Ugrave
ENCODING 217
SWIDTH 600 0
DWIDTH 11 0
BBX 7 18 2 0
BITMAP
20
10
18
00
82
82
82
82
82
82
82
82
82
82
82
82
C6
78
ENDCHAR
STARTCHAR Uacute
ENCODING 218
SWIDTH 600 0
DWIDTH 11 0
BBX 7 18 2 0
BITMAP
18
10
20
00
82
82
82
82
82
82
82
82
82
82
82
82
C6
78
ENDCHAR
STARTCHAR Ucircumflex
ENCODING 219
SWIDTH 600 0
DWIDTH 11 0
BBX 7 18 2 0
BITMAP
38
68
44
00
82
82
82
82
82
82
82
82
82
82
82
82
C6
78
ENDCHAR
STARTCHAR Udieresis
ENCODING 220
SWIDTH 600 0
DWIDTH 11 0
BBX 7 18 2 0
BITMAP
CE
C4
00
00
82
82
82
82
82
82
82
82
82
82
82
82
C6
78
ENDCHAR
STARTCHAR Yacute
ENCODING 221
SWIDTH 600 0
DWIDTH 11 0
BBX 7 18 2 0
BITMAP
18
10
20
00
86
C4
44
4C
28
28
30
10
10
10
10
10
10
10
ENDCHAR
STARTCHAR Thorn
ENCODING 222
SWIDTH 600 0
DWIDTH 11 0
BBX 7 14 2 0
BITMAP
80
80
80
F8
86
82
82
82
82
86
F8
80
80
80
ENDCHAR
STARTCHAR germandbls
ENCODING 223
SWIDTH 600 0
DWIDTH 11 0
BBX 9 15 1 -1
BITMAP
3E00
6300
C100
C100
8100
8300
9E00
8300
8100
8180
8180
8180
8300
9E00
8000
ENDCHAR
STARTCHAR agrave
ENCODING 224
SWIDTH 600 0
DWIDTH 11 0
BBX 7 14 2 0
BITMAP
30
10
08
00
7C
C4
86
02
1E
F2
82
82
86
7A
ENDCHAR
STARTCHAR aacute
ENCODING 225
SWIDTH 600 0
DWIDTH 11 0
BBX 7 14 2 0
BITMAP
18
10
20
00
7C
C4
86
02
1E
F2
82
82
8E
7A
ENDCHAR
STARTCHAR acircumflex
ENCODING 226
SWIDTH 600 0
DWIDTH 11 0
BBX 7 14 2 0
BITMAP
38
28
44
00
7C
C4
86
02
1E
F2
82
82
86
7A
ENDCHAR
STARTCHAR atilde
ENCODING 227
SWIDTH 600 0
DWIDTH 11 0
BBX 7 13 2 0
BITMAP
7C
08
00
7C
C4
86
02
1E
F2
82
82
86
7A
ENDCHAR
STARTCHAR adieresis
ENCODING 228
SWIDTH 600 0
DWIDTH 11 0
BBX 7 14 2 0
BITMAP
C4
CE
00
00
7C
C4
86
02
1E
F2
82
82
8E
7A
ENDCHAR
STARTCHAR aring
ENCODING 229
SWIDTH 600 0
DWIDTH 11 0
BBX 7 15 2 0
BITMAP
38
68
48
38
00
7C
C4
86
02
1E
F2
82
82
8E
7A
ENDCHAR
STARTCHAR ae
ENCODING 230
SWIDTH 600 0
DWIDTH 11 0
BBX 12 10 -1 0
BITMAP
39E0
4730
4610
0610
1FF0
6600
4600
C600
4730
79E0
ENDCHAR
STARTCHAR ccedilla
ENCODING 231
SWIDTH 600 0
DWIDTH 11 0
BBX 7 14 2 -4
BITMAP
3C
46
C2
80
80
80
80
C2
46
3C
10
18
04
38
ENDCHAR
STARTCHAR egrave
ENCODING 232
SWIDTH 600 0
DWIDTH 11 0
BBX 7 14 2 0
BITMAP
30
10
18
00
3C
46
82
82
FE
80
80
C2
46
3C
ENDCHAR
STARTCHAR eacute
ENCODING 233
SWIDTH 600 0
DWIDTH 11 0
BBX 7 14 2 0
BITMAP
0C
18
10
00
3C
46
82
82
FE
80
80
C2
46
3C
ENDCHAR
STARTCHAR ecircumflex
ENCODING 234
SWIDTH 600 0
DWIDTH 11 0
BBX 7 14 2 0
BITMAP
38
2C
44
00
3C
46
82
82
FE
80
80
C2
46
3C
ENDCHAR
STARTCHAR edieresis
ENCODING 235
SWIDTH 600 0
DWIDTH 11 0
BBX 7 14 2 0
BITMAP
46
66
00
00
3C
46
82
82
FE
80
80
C2
46
3C
ENDCHAR
STARTCHAR igrave
ENCODING 236
SWIDTH 600 0
DWIDTH 11 0
BBX 7 14 2 0
BITMAP
60
30
18
00
70
10
10
10
10
10
10
10
10
FE
ENDCHAR
STARTCHAR iacute
ENCODING 237
SWIDTH 600 0
DWIDTH 11 0
BBX 7 14 2 0
BITMAP
18
30
20
00
70
10
10
10
10
10
10
10
10
FE
ENDCHAR
STARTCHAR icircumflex
ENCODING 238
SWIDTH 600 0
DWIDTH 11 0
BBX 7 14 2 0
BITMAP
30
68
44
00
70
10
10
10
10
10
10
10
10
FE
ENDCHAR
STARTCHAR idieresis
ENCODING 239
SWIDTH 600 0
DWIDTH 11 0
BBX 7 14 2 0
BITMAP
C4
CE
00
00
70
10
10
10
10
10
10
10
10
FE
ENDCHAR
STARTCHAR eth
ENCODING 240
SWIDTH 600 0
DWIDTH 11 0
BBX 8 14 1 0
BITMAP
10
18
3E
04
3E
62
43
C1
C1
C1
C1
43
62
3C
ENDCHAR
STARTCHAR ntilde
ENCODING 241
SWIDTH 600 0
DWIDTH 11 0
BBX 7 13 2 0
BITMAP
7C
08
00
BC
C6
82
82
82
82
82
82
82
82
ENDCHAR
STARTCHAR ograve
ENCODING 242
SWIDTH 600 0
DWIDTH 11 0
BBX 8 14 1 0
BITMAP
10
18
0C
00
3C
62
41
41
C1
C1
41
41
62
3C
ENDCHAR
STARTCHAR oacute
ENCODING 243
SWIDTH 600 0
DWIDTH 11 0
BBX 8 14 1 0
BITMAP
0C
08
10
00
3C
62
41
41
C1
C1
41
41
62
3C
ENDCHAR
STARTCHAR ocircumflex
ENCODING 244
SWIDTH 600 0
DWIDTH 11 0
BBX 8 14 1 0
BITMAP
1C
14
22
00
3C
62
41
41
C1
C1
41
41
62
3C
ENDCHAR
STARTCHAR otilde
ENCODING 245
SWIDTH 600 0
DWIDTH 11 0
BBX 8 13 1 0
BITMAP
3E
04
00
3C
62
41
41
C1
C1
41
41
62
3C
ENDCHAR
STARTCHAR odieresis
ENCODING 246
SWIDTH 600 0
DWIDTH 11 0
BBX 8 14 1 0
BITMAP
62
67
00
00
3C
62
41
41
C1
C1
41
41
62
3C
ENDCHAR
STARTCHAR divide
ENCODING 247
SWIDTH 600 0
DWIDTH 11 0
BBX 8 9 1 1
BITMAP
18
18
00
00
FF
00
00
18
18
ENDCHAR
STARTCHAR oslash
ENCODING 248
SWIDTH 600 0
DWIDTH 11 0
BBX 7 10 2 0
BITMAP
7C
4C
8E
8A
92
92
A2
A6
6C
78
ENDCHAR
STARTCHAR ugrave
ENCODING 249
SWIDTH 600 0
DWIDTH 11 0
BBX 7 14 2 0
BITMAP
20
10
18
00
82
82
82
82
82
82
82
82
C6
7A
ENDCHAR
STARTCHAR uacute
ENCODING 250
SWIDTH 600 0
DWIDTH 11 0
BBX 7 14 2 0
BITMAP
18
10
20
00
82
82
82
82
82
82
82
82
C6
7A
ENDCHAR
STARTCHAR ucircumflex
ENCODING 251
SWIDTH 600 0
DWIDTH 11 0
BBX 7 14 2 0
BITMAP
38
68
44
00
82
82
82
82
82
82
82
82
C6
7A
ENDCHAR
STARTCHAR udieresis
ENCODING 252
SWIDTH 600 0
DWIDTH 11 0
BBX 7 14 2 0
BITMAP
C4
CE
00
00
82
82
82
82
82
82
82
82
C6
7A
ENDCHAR
STARTCHAR yacute
ENCODING 253
SWIDTH 600 0
DWIDTH 11 0
BBX 9 17 1 -3
BITMAP
0C00
0800
1000
0000
C180
4100
4100
6300
2200
2200
3600
1400
1400
1800
0800
1800
7000
ENDCHAR
STARTCHAR thorn
ENCODING 254
SWIDTH 600 0
DWIDTH 11 0
BBX 7 17 2 -3
BITMAP
80
80
80
80
F8
C4
86
82
82
82
82
86
C4
B8
80
80
80
ENDCHAR
STARTCHAR ydieresis
ENCODING 255
SWIDTH 600 0
DWIDTH 11 0
BBX 9 17 1 -3
BITMAP
6200
6300
0000
0000
C180
4100
4100
6300
2200
2200
3600
1400
1400
1800
0800
1800
7000
ENDCHAR
STARTCHAR dotlessi
ENCODING 305
SWIDTH 600 0
DWIDTH 11 0
BBX 3 10 3 0
BITMAP
E0
20
20
20
20
20
20
20
20
20
ENDCHAR
STARTCHAR Lslash
ENCODING 321
SWIDTH 600 0
DWIDTH 11 0
BBX 9 14 1 0
BITMAP
6000
6000
6000
6000
6000
6000
6000
6600
7800
7000
E000
6000
6000
7F80
ENDCHAR
STARTCHAR lslash
ENCODING 322
SWIDTH 600 0
DWIDTH 11 0
BBX 7 14 2 0
BITMAP
70
10
10
10
10
10
10
16
18
70
D0
10
10
FC
ENDCHAR
STARTCHAR OE
ENCODING 338
SWIDTH 600 0
DWIDTH 11 0
BBX 12 14 -1 0
BITMAP
3DF0
6300
4300
C100
C100
C100
C1E0
C100
C100
C100
C100
4300
6300
3DF0
ENDCHAR
STARTCHAR oe
ENCODING 339
SWIDTH 600 0
DWIDTH 11 0
BBX 12 10 -1 0
BITMAP
39E0
4730
4610
C210
C3F0
C200
C200
4600
6730
39E0
ENDCHAR
STARTCHAR Scaron
ENCODING 352
SWIDTH 600 0
DWIDTH 11 0
BBX 8 19 1 0
BITMAP
22
16
1C
00
00
3C
63
41
40
40
60
3C
0E
03
01
01
C1
63
3E
ENDCHAR
STARTCHAR scaron
ENCODING 353
SWIDTH 600 0
DWIDTH 11 0
BBX 7 15 2 0
BITMAP
44
2C
38
00
00
78
CC
84
C0
70
1C
06
86
C4
78
ENDCHAR
STARTCHAR Ydieresis
ENCODING 376
SWIDTH 600 0
DWIDTH 11 0
BBX 7 18 2 0
BITMAP
CE
C4
00
00
86
C4
44
4C
28
28
30
10
10
10
10
10
10
10
ENDCHAR
STARTCHAR Zcaron
ENCODING 381
SWIDTH 600 0
DWIDTH 11 0
BBX 8 19 1 0
BITMAP
22
16
0C
00
00
7F
01
02
06
04
0C
08
18
10
30
20
60
40
FF
ENDCHAR
STARTCHAR zcaron
ENCODING 382
SWIDTH 600 0
DWIDTH 11 0
BBX 7 15 2 0
BITMAP
44
28
38
00
00
FE
04
0C
18
10
30
60
40
C0
FE
ENDCHAR
STARTCHAR florin
ENCODING 402
SWIDTH 600 0
DWIDTH 11 0
BBX 11 16 0 -2
BITMAP
03C0
0660
0600
0400
3F80
0400
0400
0400
0400
0400
0C00
0C00
0C00
0C00
8800
7800
ENDCHAR
STARTCHAR circumflex
ENCODING 710
SWIDTH 600 0
DWIDTH 11 0
BBX 5 3 3 11
BITMAP
70
D0
88
ENDCHAR
STARTCHAR ring
ENCODING 730
SWIDTH 600 0
DWIDTH 11 0
BBX 4 4 3 10
BITMAP
70
90
90
70
ENDCHAR
STARTCHAR tilde
ENCODING 732
SWIDTH 600 0
DWIDTH 11 0
BBX 5 2 3 11
BITMAP
E0
38
ENDCHAR
STARTCHAR mu.dup1
ENCODING 956
SWIDTH 600 0
DWIDTH 11 0
BBX 7 14 2 -4
BITMAP
82
82
82
82
82
82
82
82
C6
FA
80
80
80
80
ENDCHAR
STARTCHAR endash
ENCODING 8211
SWIDTH 600 0
DWIDTH 11 0
BBX 8 1 1 4
BITMAP
FF
ENDCHAR
STARTCHAR emdash
ENCODING 8212
SWIDTH 600 0
DWIDTH 11 0
BBX 11 1 0 4
BITMAP
FFE0
ENDCHAR
STARTCHAR quoteleft
ENCODING 8216
SWIDTH 600 0
DWIDTH 11 0
BBX 2 5 5 9
BITMAP
40
80
80
C0
C0
ENDCHAR
STARTCHAR quoteright
ENCODING 8217
SWIDTH 600 0
DWIDTH 11 0
BBX 3 5 3 9
BITMAP
60
60
20
20
C0
ENDCHAR
STARTCHAR quotesinglbase
ENCODING 8218
SWIDTH 600 0
DWIDTH 11 0
BBX 3 5 3 10
BITMAP
60
60
20
20
C0
ENDCHAR
STARTCHAR quotedblleft
ENCODING 8220
SWIDTH 600 0
DWIDTH 11 0
BBX 6 5 3 9
BITMAP
44
88
88
CC
CC
ENDCHAR
STARTCHAR quotedblright
ENCODING 8221
SWIDTH 600 0
DWIDTH 11 0
BBX 7 5 1 9
BITMAP
66
66
22
22
CC
ENDCHAR
STARTCHAR quotedblbase
ENCODING 8222
SWIDTH 600 0
DWIDTH 11 0
BBX 7 5 1 9
BITMAP
66
66
22
22
CC
ENDCHAR
STARTCHAR dagger
ENCODING 8224
SWIDTH 600 0
DWIDTH 11 0
BBX 7 16 2 -1
BITMAP
10
10
10
10
10
FE
10
10
10
10
10
10
10
10
10
10
ENDCHAR
STARTCHAR daggerdbl
ENCODING 8225
SWIDTH 600 0
DWIDTH 11 0
BBX 8 15 1 -1
BITMAP
08
08
08
08
08
08
FF
08
08
FF
08
08
08
08
08
ENDCHAR
STARTCHAR bullet
ENCODING 8226
SWIDTH 600 0
DWIDTH 11 0
BBX 5 4 3 3
BITMAP
70
F0
F8
70
ENDCHAR
STARTCHAR ellipsis
ENCODING 8230
SWIDTH 600 0
DWIDTH 11 0
BBX 11 2 0 0
BITMAP
CC60
CC60
ENDCHAR
STARTCHAR perthousand
ENCODING 8240
SWIDTH 600 0
DWIDTH 11 0
BBX 11 14 0 0
BITMAP
7180
9100
9B00
9200
7600
0400
0C00
09C0
1A60
1220
37C0
2480
6480
4700
ENDCHAR
STARTCHAR guilsinglleft
ENCODING 8249
SWIDTH 600 0
DWIDTH 11 0
BBX 3 8 4 2
BITMAP
20
60
C0
80
80
C0
60
20
ENDCHAR
STARTCHAR guilsinglright
ENCODING 8250
SWIDTH 600 0
DWIDTH 11 0
BBX 3 8 4 2
BITMAP
80
C0
60
60
20
60
C0
80
ENDCHAR
STARTCHAR fraction
ENCODING 8260
SWIDTH 600 0
DWIDTH 11 0
BBX 7 14 2 4
BITMAP
06
04
0C
08
08
18
10
10
30
20
60
40
40
C0
ENDCHAR
STARTCHAR Euro
ENCODING 8364
SWIDTH 600 0
DWIDTH 11 0
BBX 9 14 1 0
BITMAP
0F00
3180
2080
2000
6000
FE00
6000
6000
FE00
6000
2000
2080
3180
0F00
ENDCHAR
STARTCHAR trademark
ENCODING 8482
SWIDTH 600 0
DWIDTH 11 0
BBX 11 7 0 7
BITMAP
FE60
2660
26A0
25A0
25A0
2420
2420
ENDCHAR
STARTCHAR minus
ENCODING 8722
SWIDTH 600 0
DWIDTH 11 0
BBX 8 1 1 5
BITMAP
FF
ENDCHAR
STARTCHAR fi
ENCODING 64257
SWIDTH 600 0
DWIDTH 11 0
BBX 12 15 -1 0
BITMAP
0F00
1800
1000
1000
1000
FFC0
10C0
10C0
10C0
10C0
10C0
10C0
10C0
10C0
13F0
ENDCHAR
STARTCHAR fl
ENCODING 64258
SWIDTH 600 0
DWIDTH 11 0
BBX 12 15 -1 0
BITMAP
0F00
1880
10C0
10C0
10C0
FFC0
10C0
10C0
10C0
10C0
10C0
10C0
10C0
10C0
13F0
ENDCHAR
STARTCHAR .notdef
ENCODING -1
SWIDTH 600 0
DWIDTH 11 0
BBX 1 1 0 0
BITMAP
00
ENDCHAR
STARTCHAR .null
ENCODING -1
SWIDTH 0 0
DWIDTH 0 0
BBX 1 1 0 0
BITMAP
00
ENDCHAR
STARTCHAR CR
ENCODING -1
SWIDTH 600 0
DWIDTH 11 0
BBX 1 1 0 0
BITMAP
00
ENDCHAR
STARTCHAR _0000
ENCODING -1
SWIDTH 0 0
DWIDTH 0 0
BBX 1 1 0 0
BITMAP
00
ENDCHAR
STARTCHAR _0129
ENCODING -1
SWIDTH 0 0
DWIDTH 0 0
BBX 1 1 0 0
BITMAP
00
ENDCHAR
STARTCHAR m.salt
ENCODING -1
SWIDTH 1200 0
DWIDTH 22 0
BBX 17 10 2 0
BITMAP
9E1E00
E16100
808080
808080
808080
808080
808080
808080
808080
808080
ENDCHAR
STARTCHAR w.salt
ENCODING -1
SWIDTH 1200 0
DWIDTH 22 0
BBX 17 10 2 0
BITMAP
C0C080
40C180
61C100
216100
232300
323200
121600
1E1400
1C1C00
0C0C00
ENDCHAR
STARTCHAR fi.salt
ENCODING -1
SWIDTH 1200 0
DWIDTH 22 0
BBX 17 15 2 0
BITMAP
0E0600
100600
100000
300000
300000
FFFE00
300200
300200
300200
300200
300200
300200
300200
300200
301F80
ENDCHAR
STARTCHAR fl.salt
ENCODING -1
SWIDTH 1200 0
DWIDTH 22 0
BBX 17 15 2 0
BITMAP
0FFC00
100400
100600
300200
300200
FE0200
300200
300200
300200
300200
300200
300200
300200
300200
301F80
ENDCHAR
STARTCHAR oe.salt
ENCODING -1
SWIDTH 1200 0
DWIDTH 22 0
BBX 17 10 2 0
BITMAP
3E1E00
633100
41E080
C0C080
C0FF80
C0C000
C1C000
41E080
633180
1E1E00
ENDCHAR
STARTCHAR M.salt
ENCODING -1
SWIDTH 1200 0
DWIDTH 22 0
BBX 17 14 2 0
BITMAP
C00080
E00180
E00180
F00280
D00680
D80480
C80C80
CC0880
C41880
C61080
C23080
C12080
C14080
C0C080
ENDCHAR
STARTCHAR W.salt
ENCODING -1
SWIDTH 1200 0
DWIDTH 22 0
BBX 17 14 2 0
BITMAP
80C080
C0C080
41C080
416180
616100
632100
223100
223300
361200
161200
141E00
1C0C00
1C0C00
080C00
ENDCHAR
STARTCHAR ae.salt
ENCODING -1
SWIDTH 1200 0
DWIDTH 22 0
BBX 17 10 2 0
BITMAP
3E1E00
613100
41E080
01C080
1FFF80
61C000
C1C000
C1E080
C3B180
7E9F00
ENDCHAR
STARTCHAR AE.salt
ENCODING -1
SWIDTH 1200 0
DWIDTH 22 0
BBX 18 14 2 0
BITMAP
01FFC0
034000
064000
044000
0C4000
084000
187F00
104000
304000
204000
7FC000
404000
C04000
807FC0
ENDCHAR
STARTCHAR OE.salt
ENCODING -1
SWIDTH 1200 0
DWIDTH 22 0
BBX 17 14 2 0
BITMAP
1F7F80
31C000
60C000
404000
C04000
C04000
C07F00
C04000
C04000
C04000
404000
60C000
31Cq  q  q  q  q  q  q  q  q  q  q  q  q  q  q  q  q  q  q  q  q  q                                          q  q  q  q      q  q  q  q  q  q  q  q  q  q  q  q  q  q  q  q  q  q  q  q  q  q  q  q  q  q  q  q  q  q  q  q  q  q  q  q  q  q  q  q  q  q  q  q  q  q  q  q  q                                          q  q  q  q      q  q  q  q  q  q  q  q  q  q  q  q  q  q  q  q  q  q  q  q  q  q  q  q  q  q  q  q  q  q  q  q  q  q  q  q  q  q  q  q  q  q  q  q  q  q  q  q  q                                          q  q  q  q      q  q  q  q  q  q  q  q  q  q  q  q